<?xml version="1.0" encoding="UTF-8" standalone="no" ?>
<!DOCTYPE svg PUBLIC "-//W3C//DTD SVG 1.1//EN" "http://www.w3.org/Graphics/SVG/1.1/DTD/svg11.dtd">
<svg xmlns="http://www.w3.org/2000/svg" xmlns:xlink="http://www.w3.org/1999/xlink" version="1.1" width="400" height="400" viewBox="0 0 400 400" xml:space="preserve">
<desc>Created with Fabric.js 3.6.2</desc>
<defs>
</defs>
<g transform="matrix(7.14 0 0 7.14 200 200)" id="Youtube"  >
<path style="stroke: none; stroke-width: 1; stroke-dasharray: none; stroke-linecap: butt; stroke-dashoffset: 0; stroke-linejoin: miter; stroke-miterlimit: 4; fill: rgb(255,255,255); fill-rule: nonzero; opacity: 1;"  transform=" translate(-16, -16)" d="M 26.49 30 H 5.5 A 3.35 3.35 0 0 1 3 29 a 3.35 3.35 0 0 1 -1 -2.48 V 5.5 A 3.35 3.35 0 0 1 3 3 A 3.35 3.35 0 0 1 5.5 2 h 21 A 3.35 3.35 0 0 1 29 3 A 3.35 3.35 0 0 1 30 5.5 v 21 A 3.52 3.52 0 0 1 26.49 30 Z M 16.07 22.67 c 0.95 0 2.19 0 3.7 0 c 2 -0.07 3.12 -0.13 3.4 -0.19 a 2.4 2.4 0 0 0 1.19 -0.51 a 2.51 2.51 0 0 0 0.78 -1.13 a 12.33 12.33 0 0 0 0.46 -4.09 V 15.16 a 27.72 27.72 0 0 0 -0.19 -3.1 a 3.69 3.69 0 0 0 -0.74 -1.87 c -0.18 -0.19 -0.3 -0.28 -0.37 -0.29 a 2.09 2.09 0 0 0 -1 -0.46 A 55 55 0 0 0 16 9.17 c -1 0 -2.19 0 -3.52 0.06 a 27.07 27.07 0 0 0 -3.8 0.23 a 2.31 2.31 0 0 0 -1.47 0.87 a 4.48 4.48 0 0 0 -0.64 1.73 a 29.89 29.89 0 0 0 -0.17 3.1 a 21.82 21.82 0 0 0 0.31 5.05 a 4.89 4.89 0 0 0 0.29 1 a 2.52 2.52 0 0 0 1.5 1.17 l 0.75 0.12 a 16.74 16.74 0 0 0 1.79 0.13 C 13.33 22.64 15 22.67 16.07 22.67 Z M 14 18.41 V 13 l 4.26 2.22 c 0.62 0.32 0.93 0.49 0.93 0.5 Z" stroke-linecap="round" />
</g>
</svg>